<svg xmlns="http://www.w3.org/2000/svg" width="200" height="200" viewBox="0 0 200 200"><circle cx="101" cy="100" r="91" fill="#bdffd9" stroke="#7ba68d" stroke-miterlimit="10" stroke-width="4"/><path fill="#bdffd9" stroke="#512500" stroke-linecap="round" stroke-linejoin="round" stroke-width="4" d="M41.1 56.4l11.1 7.5m25.5 85.3l-7.5 11.2m73.9-98.3l-7.5 11.2m31.8 30.9l7.5 8.4m-82.6 45.6l7.5 8.4m10.2-133l7.5 8.4m15.3 72.3L120 126m48.9-62.1l-12.7 17.5m-98 52.1l-12.7 17.4m47.6-78.1l8 6.6m39.2 66.5l8 6.6M29.8 100l16.8 8.4m30.8-4.2l-6.8 10.1M74 26.5l14.8 9.3"/></svg>